#!OML:ASF H:\Dans Jumps\Project 1\Capture day 1\Session 1\subject.ASF
:FULLY-SPECIFIED
:DEGREES
385
root 0.0617018 17.7954 9.82386 11.9561 2.92451 -1.39769
lowerback 0.730703 0.976487 -0.029038
upperback 1.9108 1.28231 1.61848
thorax 1.50994 0.627526 1.68213
lowerneck -11.7473 -1.94195 -1.71097
upperneck 27.9523 -2.6948 1.27854
head 10.9911 -1.23391 0.416341
rclavicle -7.35503e-015 -1.19271e-015
rhumerus -23.2127 -18.5499 -82.436
rradius 20.222
rwrist 49.936
rhand -18.6513 -26.5583
rfingers 7.12502
rthumb 7.6417 -56.4002
lclavicle -7.35503e-015 -1.19271e-015
lhumerus -32.7799 1.93797 88.2398
lradius 14.4797
lwrist 4.98193
lhand -26.1938 -9.29203
lfingers 7.12502
lthumb 0.358599 20.6874
rfemur -18.6349 -2.96073 20.3335
rtibia 19.8624
rfoot -11.8758 -0.575084
rtoes 16.9656
lfemur -19.45 7.98269 -18.3779
ltibia 18.7794
lfoot -8.78692 -0.224937
ltoes 0.819161
386
root 0.0609136 17.7954 9.83838 11.9248 2.84978 -1.397
lowerback 0.640112 0.961824 -0.0391083
upperback 1.88426 1.26241 1.61567
thorax 1.53396 0.617449 1.6862
lowerneck -11.7195 -1.90478 -1.65481
upperneck 27.9271 -2.63862 1.21776
head 10.9732 -1.21045 0.392151
rclavicle 7.35503e-015 1.59028e-014
rhumerus -23.2482 -18.693 -82.3192
rradius 20.1804
rwrist 49.9118
rhand -18.6043 -26.6211
rfingers 7.12502
rthumb 7.68711 -56.4614
lclavicle 7.35503e-015 1.59028e-014
lhumerus -32.6812 1.56645 88.5032
lradius 14.7115
lwrist 5.54035
lhand -26.1535 -9.30781
lfingers 7.12502
lthumb 0.397462 20.6716
rfemur -18.5249 -2.97578 20.3297
rtibia 19.8081
rfoot -11.911 -0.46546
rtoes 17.0992
lfemur -19.2845 8.03687 -18.3697
ltibia 18.6518
lfoot -8.80607 -0.193926
ltoes 0.748732
387
root 0.0603017 17.7951 9.85257 11.8913 2.78245 -1.40935
lowerback 0.546456 0.94535 -0.028061
upperback 1.85784 1.23997 1.61496
thorax 1.56031 0.606379 1.68058
lowerneck -11.7112 -1.87187 -1.62224
upperneck 27.9216 -2.58854 1.17652
head 10.9674 -1.18966 0.378086
rclavicle -1.63997e-014 -4.37326e-015
rhumerus -23.2751 -18.7587 -82.2283
rradius 20.1843
rwrist 49.7943
rhand -18.5597 -26.6824
rfingers 7.12502
rthumb 7.73014 -56.5211
lclavicle -1.63997e-014 -4.37326e-015
lhumerus -32.5712 1.18889 88.7577
lradius 14.9335
lwrist 6.0802
lhand -26.1048 -9.30384
lfingers 7.12502
lthumb 0.444538 20.6754
rfemur -18.4132 -2.9889 20.3402
rtibia 19.7514
rfoot -11.9423 -0.365951
rtoes 17.2233
lfemur -19.1196 8.07023 -18.3468
ltibia 18.5267
lfoot -8.82421 -0.133635
ltoes 0.641961
388
root 0.0602673 17.7947 9.86718 11.8551 2.72053 -1.42347
lowerback 0.441103 0.928132 -0.00215395
upperback 1.83259 1.21635 1.61187
thorax 1.5948 0.594911 1.66439
lowerneck -11.7192 -1.84147 -1.61071
upperneck 27.9341 -2.54158 1.15112
head 10.9724 -1.17042 0.372781
rclavicle -2.43511e-014 -1.23246e-014
rhumerus -23.3002 -18.761 -82.1562
rradius 20.2251
rwrist 49.6093
rhand -18.5145 -26.7228
rfingers 7.12502
rthumb 7.77378 -56.5599
lclavicle -2.43511e-014 -1.23246e-014
lhumerus -32.4554 0.816734 88.9993
lradius 15.1537
lwrist 6.56652
lhand -26.0554 -9.24552
lfingers 7.12502
lthumb 0.492216 20.7337
rfemur -18.2963 -3.01865 20.3535
rtibia 19.6943
rfoot -11.9735 -0.262233
rtoes 17.3249
lfemur -18.9445 8.08696 -18.3239
ltibia 18.3943
lfoot -8.84354 -0.0486474
ltoes 0.496519
389
root 0.0607107 17.7944 9.88226 11.8148 2.65915 -1.43915
lowerback 0.324773 0.912104 0.0358889
upperback 1.80837 1.19409 1.60614
thorax 1.63676 0.584294 1.63883
lowerneck -11.7417 -1.81064 -1.62132
upperneck 27.9603 -2.4952 1.14835
head 10.9861 -1.15092 0.37925
rclavicle 5.1684e-015 1.59028e-015
rhumerus -23.3294 -18.69 -82.1032
rradius 20.3039
rwrist 49.3581
rhand -18.489 -26.7233
rfingers 7.12502
rthumb 7.79841 -56.5595
lclavicle 5.1684e-015 1.59028e-015
lhumerus -32.3409 0.460043 89.2252
lradius 15.3757
lwrist 6.99285
lhand -25.9953 -9.10636
lfingers 7.12502
lthumb 0.550267 20.8727
rfemur -18.1718 -3.05555 20.3691
rtibia 19.6356
rfoot -12.0054 -0.163445
rtoes 17.3852
lfemur -18.7547 8.0885 -18.3
ltibia 18.2512
lfoot -8.86418 0.0613439
ltoes 0.302637
390
root 0.0614223 17.7939 9.89732 11.7711 2.59336 -1.45915
lowerback 0.204407 0.897958 0.0828278
upperback 1.78426 1.17414 1.60068
thorax 1.68119 0.574954 1.60862
lowerneck -11.7722 -1.78036 -1.65471
upperneck 27.9928 -2.4495 1.16435
head 11.0045 -1.1318 0.396278
rclavicle -8.44835e-015 -8.34896e-015
rhumerus -23.3528 -18.5522 -82.0696
rradius 20.4075
rwrist 49.0605
rhand -18.4816 -26.6847
rfingers 7.12502
rthumb 7.80551 -56.5206
lclavicle -8.44835e-015 -8.34896e-015
lhumerus -32.2279 0.144121 89.4277
lradius 15.5994
lwrist 7.34778
lhand -25.9381 -8.96746
lfingers 7.12502
lthumb 0.605521 21.0114
rfemur -18.0438 -3.08814 20.39
rtibia 19.5765
rfoot -12.0366 -0.0772818
rtoes 17.391
lfemur -18.5512 8.07439 -18.2701
ltibia 18.0958
lfoot -8.88317 0.199012
ltoes 0.062878
391
root 0.0620867 17.7933 9.9122 11.7202 2.5163 -1.48762
lowerback 0.0819407 0.887682 0.136967
upperback 1.76422 1.15906 1.59709
thorax 1.73093 0.56812 1.57638
lowerneck -11.7953 -1.74841 -1.69851
upperneck 28.0087 -2.40143 1.18966
head 11.0153 -1.11171 0.418881
rclavicle -1.03368e-014 -7.95139e-016
rhumerus -23.3572 -18.3703 -82.0523
rradius 20.5192
rwrist 48.7415
rhand -18.4825 -26.6149
rfingers 7.12502
rthumb 7.80468 -56.4508
lclavicle -1.03368e-014 -7.95139e-016
lhumerus -32.1086 -0.149022 89.6154
lradius 15.8093
lwrist 7.6517
lhand -25.8842 -8.8247
lfingers 7.12502
lthumb 0.6576 21.154
rfemur -17.9108 -3.09431 20.4189
rtibia 19.5185
rfoot -12.0681 -0.0142012
rtoes 17.36
lfemur -18.3317 8.04654 -18.2272
ltibia 17.9296
lfoot -8.90255 0.371791
ltoes -0.244421
392
root 0.0626587 17.7925 9.92669 11.6656 2.4265 -1.51577
lowerback -0.0355258 0.88022 0.18682
upperback 1.74464 1.14768 1.59337
thorax 1.77814 0.563098 1.54635
lowerneck -11.82 -1.71324 -1.73472
upperneck 28.0099 -2.34782 1.20613
head 11.0205 -1.08943 0.437696
rclavicle -2.56432e-014 -7.55382e-015
rhumerus -23.3434 -18.1284 -82.0593
rradius 20.6472
rwrist 48.39
rhand -18.4738 -26.5407
rfingers 7.12502
rthumb 7.81303 -56.3763
lclavicle -2.56432e-014 -7.55382e-015
lhumerus -31.9817 -0.41706 89.7854
lradius 15.9994
lwrist 7.92183
lhand -25.8477 -8.73128
lfingers 7.12502
lthumb 0.692848 21.2473
rfemur -17.778 -3.07912 20.4467
rtibia 19.4643
rfoot -12.1009 0.030389
rtoes 17.278
lfemur -18.1026 8.00299 -18.1808
ltibia 17.7554
lfoot -8.92053 0.593624
ltoes -0.652611
393
root 0.063413 17.7916 9.94123 11.6057 2.32199 -1.5362
lowerback -0.151588 0.875248 0.227441
upperback 1.72755 1.13963 1.58658
thorax 1.8269 0.559625 1.51838
lowerneck -11.8432 -1.67499 -1.73979
upperneck 27.9886 -2.28751 1.18948
head 11.0158 -1.06492 0.44004
rclavicle -6.95746e-015 -4.77083e-015
rhumerus -23.3182 -17.8001 -82.0968
rradius 20.8073
rwrist 47.98
rhand -18.4647 -26.4738
rfingers 7.12502
rthumb 7.82181 -56.3091
lclavicle -6.95746e-015 -4.77083e-015
lhumerus -31.8463 -0.651887 89.9331
lradius 16.1644
lwrist 8.16504
lhand -25.8357 -8.70768
lfingers 7.12502
lthumb 0.70441 21.2709
rfemur -17.6421 -3.05962 20.4649
rtibia 19.4155
rfoot -12.1379 0.0780445
rtoes 17.1622
lfemur -17.8618 7.94851 -18.1407
ltibia 17.5762
lfoot -8.94378 0.862731
ltoes -1.19793
394
root 0.064173 17.7905 9.95592 11.5385 2.19937 -1.54724
lowerback -0.263131 0.875148 0.254138
upperback 1.71091 1.13827 1.57624
thorax 1.87323 0.559325 1.49458
lowerneck -11.8573 -1.63636 -1.73295
upperneck 27.9467 -2.22523 1.15834
head 11.0012 -1.04011 0.435416
rclavicle 1.71949e-014 3.97569e-015
rhumerus -23.2917 -17.3774 -82.1607
rradius 20.9988
rwrist 47.5042
rhand -18.449 -26.4173
rfingers 7.12502
rthumb 7.83703 -56.2521
lclavicle 1.71949e-014 3.97569e-015
lhumerus -31.7072 -0.84692 90.0559
lradius 16.3006
lwrist 8.36991
lhand -25.8485 -8.74737
lfingers 7.12502
lthumb 0.692113 21.2312
rfemur -17.5024 -3.02728 20.4703
rtibia 19.3736
rfoot -12.18 0.127164
rtoes 17.0364
lfemur -17.6101 7.89464 -18.109
ltibia 17.3959
lfoot -8.98193 1.17015
ltoes -1.90971
395
root 0.065151 17.7893 9.97084 11.4638 2.06395 -1.55082
lowerback -0.371706 0.878844 0.272862
upperback 1.69228 1.14214 1.56262
thorax 1.91564 0.56157 1.47193
lowerneck -11.8585 -1.5977 -1.71964
upperneck 27.8878 -2.16326 1.12286
head 10.9774 -1.01537 0.428172
rclavicle -4.96962e-016 9.54166e-015
rhumerus -23.2711 -16.8739 -82.2433
rradius 21.2188
rwrist 46.9783
rhand -18.4283 -26.3734
rfingers 7.12502
rthumb 7.857 -56.2074
lclavicle -4.96962e-016 9.54166e-015
lhumerus -31.5722 -0.996105 90.1529
lradius 16.4103
lwrist 8.54133
lhand -25.8877 -8.84491
lfingers 7.12502
lthumb 0.654186 21.1338
rfemur -17.358 -2.99866 20.4659
rtibia 19.3392
rfoot -12.2258 0.192227
rtoes 16.9525
lfemur -17.3495 7.84833 -18.0852
ltibia 17.2186
lfoot -9.04889 1.49215
ltoes -2.79222
396
root 0.0662895 17.7881 9.98609 11.3825 1.91858 -1.54714
lowerback -0.478273 0.885935 0.282926
upperback 1.66965 1.15077 1.54665
thorax 1.95259 0.566103 1.45174
lowerneck -11.8387 -1.56043 -1.71289
upperneck 27.8149 -2.10391 1.09446
head 10.9444 -0.991765 0.424435
rclavicle -1.0635e-014 -2.38542e-015
rhumerus -23.2516 -16.3452 -82.3298
rradius 21.4406
rwrist 46.4518
rhand -18.4073 -26.3427
rfingers 7.12502
rthumb 7.87727 -56.1759
lclavicle -1.0635e-014 -2.38542e-015
lhumerus -31.4451 -1.08105 90.2184
lradius 16.5042
lwrist 8.65804
lhand -25.9322 -8.93507
lfingers 7.12502
lthumb 0.61123 21.0438
rfemur -17.2092 -2.97902 20.4527
rtibia 19.311
rfoot -12.275 0.277358
rtoes 16.915
lfemur -17.0858 7.8209 -18.0702
ltibia 17.0539
lfoot -9.16271 1.79674
ltoes -3.80921
